<svg xmlns="http://www.w3.org/2000/svg" width="600" height="750" viewBox="0 0 600 750" preserveAspectRatio="xMidYMid meet"><title>Claudius</title><g transform="translate(0,750) scale(0.1,-0.1)" fill="#000" stroke="none"> <path d="M2765 7154 c-156 -17 -428 -94 -585 -166 -41 -20 -102 -43 -135 -53 -354 -106 -671 -425 -844 -852 -31 -76 -48 -140 -66 -250 -28 -170 -30 -222 -11 -314 8 -37 17 -104 21 -150 9 -123 23 -183 62 -273 19 -45 37 -87 40 -94 4 -10 -2 -12 -29 -7 -90 17 -188 -52 -224 -156 -22 -64 -24 -206 -5 -289 20 -82 72 -184 146 -285 36 -49 102 -162 147 -249 92 -179 138 -237 205 -255 49 -13 83 -7 112 20 11 10 22 19 24 19 2 0 7 -55 11 -122 3 -68 15 -247 27 -398 26 -352 36 -871 20 -995 -24 -180 -42 -201 -336 -390 -122 -79 -161 -111 -195 -162 -38 -58 -46 -109 -25 -159 22 -53 45 -76 147 -146 98 -67 118 -97 138 -211 15 -83 41 -122 105 -163 111 -71 131 -99 155 -227 18 -89 82 -152 195 -191 28 -9 114 -25 192 -36 149 -20 193 -35 349 -124 138 -78 297 -99 754 -100 l325 -1 0 25 c0 23 4 25 45 26 71 2 71 2 68 30 l-3 27 115 1 115 1 3 30 3 30 225 -3 226 -3 -2 58 c-1 32 -2 64 -1 71 1 9 36 12 141 12 l140 0 0 35 c0 32 2 35 28 33 15 -2 57 1 95 6 l67 8 0 74 0 74 40 0 40 0 0 145 0 145 30 0 30 0 0 130 0 130 -25 0 c-25 0 -30 11 -27 53 1 12 -5 17 -22 17 -25 0 -40 23 -34 51 2 9 -6 14 -22 14 -20 0 -26 6 -28 28 -3 21 -9 27 -28 27 -21 0 -24 5 -24 35 0 38 5 37 -105 39 -36 1 -40 4 -43 29 -3 21 -9 27 -28 27 -20 0 -24 5 -24 31 0 26 -3 30 -22 27 -18 -2 -24 3 -28 27 l-5 30 -79 3 c-77 3 -78 3 -72 27 6 22 3 25 -24 25 -27 0 -30 3 -30 30 0 28 -2 30 -40 30 l-40 0 0 95 c0 94 0 95 24 95 l25 0 3 223 c2 122 2 224 1 226 -1 1 -6 0 -12 -4 -7 -4 -11 -78 -11 -216 l0 -209 -25 0 -25 0 0 -115 c0 -122 -2 -119 53 -115 24 1 27 -2 27 -29 0 -26 4 -31 25 -31 21 0 25 -5 25 -30 l0 -30 80 0 c79 0 80 0 80 -25 0 -20 5 -25 25 -25 21 0 25 -5 25 -30 0 -25 4 -30 25 -30 21 0 25 -5 25 -30 l0 -30 74 0 74 0 -2 -32 c-1 -29 2 -33 26 -36 21 -3 27 -9 30 -30 2 -21 8 -27 28 -27 21 0 25 -5 25 -30 0 -25 4 -30 25 -30 22 0 25 -5 28 -37 3 -33 7 -38 28 -38 24 0 24 0 24 -110 l0 -110 -30 0 -29 0 -3 -142 -3 -143 -37 -3 -38 -3 0 -73 0 -73 -46 -7 c-26 -3 -69 -6 -95 -6 l-49 0 0 -35 0 -35 -145 0 -145 0 0 -70 0 -70 -219 0 -220 0 -3 -27 -3 -28 -115 0 -115 0 0 -27 c1 -27 -1 -28 -48 -28 -47 0 -48 1 -45 28 3 24 0 27 -24 24 -23 -3 -28 1 -29 20 -1 13 -1 26 0 31 0 4 -12 7 -29 7 l-30 0 0 175 0 175 30 0 30 0 0 104 0 105 -32 3 c-28 2 -34 8 -36 31 -2 15 -9 27 -18 27 -10 0 -13 -7 -8 -28 10 -49 13 -52 44 -52 l31 0 -3 -82 -3 -83 -33 -3 -32 -3 2 -192 c3 -184 4 -192 23 -193 11 -1 26 -2 33 -3 6 -1 12 -14 12 -31 0 -25 4 -29 23 -27 19 2 22 -3 25 -43 l3 -45 -353 6 c-485 9 -542 19 -733 119 -139 73 -176 85 -321 105 -115 15 -193 35 -238 59 -82 44 -106 79 -130 185 -22 100 -44 131 -136 193 -88 58 -101 77 -120 178 -22 115 -39 137 -206 255 -62 44 -84 77 -84 129 0 98 43 139 358 340 154 98 194 167 213 363 16 167 -4 753 -40 1168 -6 61 -12 155 -15 210 l-6 100 16 -55 c72 -265 149 -446 255 -601 65 -95 223 -259 298 -311 25 -17 69 -47 96 -66 179 -124 469 -211 708 -212 l77 0 0 -49 c0 -48 1 -50 31 -53 l31 -3 0 -115 0 -115 -34 -5 -33 -5 -3 -78 c-3 -74 -4 -77 -27 -77 -24 0 -25 -3 -25 -55 0 -53 -1 -55 -26 -55 -23 0 -25 -3 -20 -25 6 -22 3 -25 -19 -25 -24 0 -25 -3 -25 -54 0 -49 -2 -55 -22 -58 -23 -3 -23 -5 -23 -153 l0 -150 37 -3 37 -3 3 -52 c2 -32 8 -52 16 -53 6 -1 19 -2 27 -3 9 -1 15 -11 15 -27 0 -22 4 -25 28 -22 23 2 27 -1 30 -23 3 -24 6 -25 65 -25 l62 1 0 -30 c0 -27 3 -30 28 -28 24 2 27 -2 27 -27 0 -26 15 -48 25 -38 2 2 1 22 -2 46 -5 38 -8 41 -29 36 -22 -6 -24 -3 -24 30 l0 36 -64 0 c-59 0 -65 2 -68 22 -2 17 -10 23 -28 23 -18 0 -26 6 -28 22 -2 15 -11 23 -30 25 -25 3 -27 7 -30 56 l-3 52 -35 0 c-20 0 -34 5 -34 13 0 6 -3 63 -6 125 -5 117 2 147 32 135 11 -4 14 6 14 45 0 45 3 51 23 54 18 2 21 8 19 31 -3 23 0 27 22 27 25 0 26 3 26 55 0 52 1 55 25 55 28 0 29 1 25 93 l-2 67 41 0 41 0 0 140 0 140 -35 0 c-34 0 -35 1 -35 40 l0 40 139 0 c77 0 146 3 155 6 18 7 23 84 6 84 -5 0 -10 -13 -10 -30 l0 -30 -92 0 c-51 0 -117 -3 -145 -6 -52 -7 -53 -6 -53 18 0 25 2 26 54 24 49 -1 56 1 61 21 3 14 13 23 25 23 16 0 20 7 20 30 0 23 4 30 20 30 19 0 20 7 20 120 0 113 -1 120 -20 120 -18 0 -20 7 -20 55 l0 55 -35 0 c-32 0 -35 2 -35 30 0 30 -1 30 -44 25 -43 -5 -45 -4 -48 22 l-3 28 -85 0 c-53 -1 -104 -7 -136 -18 -63 -22 -144 -74 -144 -93 0 -9 19 -2 57 23 74 47 129 63 220 63 70 0 73 -1 73 -23 0 -21 4 -23 45 -22 43 2 45 1 45 -27 0 -25 3 -28 35 -28 l35 0 0 -55 c0 -48 2 -55 20 -55 19 0 20 -7 20 -100 0 -93 -1 -100 -20 -100 -15 0 -20 -7 -20 -29 0 -23 -5 -30 -22 -33 -15 -2 -23 -10 -23 -23 0 -18 -6 -20 -57 -17 l-58 4 0 -33 0 -32 -137 6 c-195 8 -342 46 -513 132 -207 104 -394 267 -512 446 -125 188 -187 345 -283 717 -30 118 -64 231 -76 252 -23 41 -58 62 -100 58 -65 -5 -126 53 -155 148 -17 57 -17 77 -3 129 11 38 66 105 87 105 14 0 42 -98 42 -144 0 -72 30 -30 55 78 8 34 15 95 15 135 0 41 5 125 11 185 13 133 0 212 -53 327 -19 41 -41 89 -48 108 -20 50 -18 147 4 206 20 54 95 146 191 235 21 19 52 64 69 100 29 60 31 73 31 170 0 115 -19 177 -72 233 -15 15 -21 27 -14 27 25 0 71 -42 98 -88 24 -40 28 -58 28 -122 0 -41 -4 -88 -9 -105 l-9 -29 29 18 c16 10 47 36 69 58 22 22 63 57 91 78 100 75 157 195 157 330 -1 84 0 84 13 47 35 -100 19 -214 -40 -292 -14 -18 -26 -37 -26 -40 0 -11 91 5 122 21 15 8 36 14 47 14 31 0 141 40 186 68 53 32 103 80 122 115 8 16 17 26 20 23 3 -3 -7 -26 -22 -51 -15 -26 -24 -49 -21 -52 9 -10 96 26 134 55 20 15 61 43 90 61 91 58 167 156 196 255 12 40 12 39 19 -60 8 -113 24 -178 57 -224 28 -39 116 -90 157 -90 17 0 35 -4 38 -10 14 -23 25 -7 25 40 l0 50 -45 0 -45 0 0 70 c0 66 1 70 23 67 18 -2 23 4 25 31 3 28 7 32 33 32 16 0 29 5 29 10 0 6 -18 10 -40 10 -39 0 -40 -1 -40 -35 0 -31 -3 -35 -25 -35 -25 0 -25 -1 -25 -85 l0 -85 45 0 c41 0 45 -2 45 -25 0 -22 -3 -25 -27 -19 -16 3 -52 17 -81 31 -93 44 -120 123 -140 408 -7 103 -14 139 -31 174 -15 29 -26 40 -33 33 -7 -7 -5 -18 6 -34 9 -13 20 -48 26 -78 22 -114 -30 -248 -138 -355 -35 -36 -68 -65 -73 -65 -5 0 1 19 13 43 30 57 36 162 14 222 -10 24 -35 60 -56 79 -44 40 -145 75 -163 57 -11 -11 -12 -11 67 -32 87 -22 146 -106 146 -207 0 -52 -32 -132 -72 -177 -34 -39 -95 -85 -112 -85 -3 0 3 23 14 50 34 87 24 177 -28 254 -29 43 -52 57 -52 32 0 -9 4 -16 9 -16 16 0 61 -103 61 -139 -1 -53 -33 -115 -87 -167 -51 -48 -89 -71 -172 -103 -48 -18 -72 -13 -33 8 28 15 70 100 77 156 4 30 2 69 -5 95 -12 47 -89 189 -102 190 -17 0 -6 -29 34 -95 36 -60 42 -79 46 -140 4 -57 0 -79 -17 -116 -35 -75 -96 -128 -173 -150 -34 -9 -34 -8 -4 39 14 20 30 65 37 100 16 79 1 166 -42 234 -51 80 -88 95 -49 20 27 -52 30 -164 7 -243 -20 -67 -86 -170 -130 -201 -29 -20 -30 -21 -22 -2 29 68 38 138 27 206 -7 38 -19 82 -27 99 -22 42 -75 99 -92 99 -10 0 -5 -11 16 -35 104 -118 109 -303 12 -431 -20 -26 -40 -49 -46 -51 -6 -2 -9 20 -7 58 7 113 -38 202 -122 240 -44 20 -106 25 -106 9 0 -5 6 -10 13 -10 15 0 65 -51 90 -91 70 -114 55 -295 -35 -414 -33 -45 -57 -61 -39 -26 18 32 33 114 32 172 -1 64 -32 157 -61 184 -28 26 -37 10 -13 -23 74 -100 67 -264 -18 -401 -33 -54 -55 -68 -39 -25 13 33 13 129 -1 177 -11 42 -63 107 -85 107 -19 0 -18 -19 1 -26 9 -4 28 -27 43 -52 52 -90 30 -261 -41 -316 -17 -14 -28 -28 -24 -32 3 -4 13 -1 22 6 19 16 19 12 -1 -36 -23 -54 -14 -151 20 -231 14 -35 38 -90 52 -124 32 -76 39 -137 29 -273 l-7 -106 -32 67 c-18 38 -45 82 -59 99 -15 18 -27 35 -27 39 0 16 -53 125 -61 125 -13 0 -11 -12 11 -58 26 -54 26 -56 -14 -30 -62 41 -132 233 -147 402 -5 61 -14 129 -19 151 -23 97 3 358 51 502 34 104 137 298 218 410 171 240 382 404 615 478 40 13 120 43 177 68 152 66 307 113 485 146 67 12 197 14 322 4 l82 -6 0 -34 0 -33 140 6 140 7 0 -41 0 -42 185 0 185 0 0 -40 0 -40 85 0 c84 0 85 0 85 -25 0 -25 0 -25 95 -25 l95 0 0 -45 c0 -43 1 -45 30 -45 25 0 30 -4 30 -25 0 -24 2 -25 70 -25 l70 0 0 -31 c0 -23 4 -30 18 -28 35 3 42 -2 42 -31 0 -19 5 -30 13 -29 31 4 37 -2 37 -40 0 -40 0 -40 43 -43 40 -3 42 -5 45 -36 3 -27 7 -33 25 -30 16 2 23 -3 25 -19 3 -17 10 -23 28 -23 22 0 24 -4 24 -49 l0 -49 48 1 47 2 3 -107 3 -108 30 0 30 0 -1 -57 c-2 -80 -2 -84 13 -82 38 5 40 1 34 -78 -7 -90 -1 -108 32 -108 l24 0 0 -195 0 -195 -27 -5 c-29 -5 -29 -8 -35 -238 -1 -48 -3 -53 -20 -47 -16 5 -21 0 -26 -28 -4 -19 -6 -40 -5 -48 6 -37 -1 -49 -25 -49 -24 0 -25 -2 -25 -65 l0 -65 -50 0 c-27 0 -50 -4 -50 -10 0 -6 34 -10 81 -10 72 0 81 2 86 20 4 17 14 20 54 20 42 0 49 -3 49 -20 0 -13 7 -20 20 -20 19 0 20 -7 20 -190 l0 -190 -30 0 -30 0 0 -79 c0 -75 -1 -80 -22 -83 -17 -2 -24 -11 -26 -30 -2 -16 -8 -28 -13 -28 -5 0 -9 -11 -9 -24 0 -21 -5 -25 -37 -28 -33 -3 -38 -7 -41 -30 -3 -22 -9 -28 -28 -28 -27 0 -26 7 -24 -142 l1 -98 -25 0 c-24 0 -26 -3 -26 -45 0 -41 -2 -45 -25 -45 -20 0 -25 -5 -25 -25 0 -24 -2 -25 -75 -25 -73 0 -75 1 -75 25 0 16 -6 25 -16 25 -14 0 -15 7 -10 38 3 20 6 90 6 155 l0 117 25 0 c24 0 25 3 25 56 0 47 3 55 18 52 9 -2 18 -10 18 -18 3 -32 7 -34 13 -5 5 27 11 31 51 35 l45 5 0 88 0 87 -27 0 c-28 0 -28 1 -28 65 0 63 1 65 25 65 21 0 25 5 25 30 0 27 3 30 24 24 23 -5 25 -3 28 33 l3 38 50 -1 c130 -3 126 -2 123 -30 -2 -15 3 -29 10 -31 8 -3 12 8 12 36 l0 41 -110 0 -110 0 0 -36 c0 -34 -2 -36 -25 -30 -23 6 -25 3 -25 -24 0 -25 -4 -30 -25 -30 -20 0 -25 -5 -25 -25 0 -22 -4 -25 -40 -25 l-40 0 0 91 c0 88 1 90 23 87 21 -3 22 1 27 87 5 86 6 90 28 87 24 -4 25 -2 22 71 -1 45 0 48 22 45 l23 -3 3 158 3 157 -36 0 -35 0 0 110 0 110 25 0 c23 0 25 4 25 45 0 45 0 45 36 45 35 0 36 1 33 38 -3 57 -1 62 26 62 l25 0 0 140 c0 132 -1 140 -20 140 -10 0 -24 8 -29 18 -9 14 -10 13 -11 -10 0 -21 5 -28 20 -28 19 0 20 -7 20 -120 l0 -120 -25 0 c-26 0 -31 -12 -26 -72 2 -26 -1 -28 -33 -28 -36 0 -36 0 -36 -44 0 -41 -2 -45 -27 -48 l-28 -3 0 -130 0 -130 28 3 c25 3 27 1 27 -32 0 -20 5 -36 10 -36 7 0 10 -37 8 -102 -3 -95 -4 -103 -23 -103 -17 0 -20 -8 -23 -57 -2 -43 -7 -58 -17 -58 -12 0 -15 21 -15 116 0 111 -1 115 -20 109 -18 -6 -20 -2 -20 54 0 54 -2 60 -22 63 -13 2 -22 8 -21 13 1 6 5 126 8 268 l8 257 -27 0 c-22 0 -26 4 -26 30 0 25 -4 29 -22 27 -23 -2 -23 -1 -26 156 l-3 157 26 0 c21 0 25 5 25 30 0 25 4 30 25 30 22 0 25 4 25 35 0 23 -5 35 -14 35 -9 0 -12 -8 -8 -25 4 -22 1 -25 -22 -25 -22 0 -26 -4 -26 -30 0 -25 -4 -30 -25 -30 l-25 0 0 -109 c0 -90 -3 -110 -16 -115 -22 -9 -34 1 -34 30 0 20 -5 24 -31 24 -30 0 -31 1 -27 40 3 38 2 40 -24 40 -24 0 -28 4 -28 30 0 27 -3 30 -30 30 l-30 0 0 130 0 130 26 0 c24 0 26 -3 22 -42 -1 -24 2 -45 7 -48 6 -3 11 15 13 43 3 39 6 47 23 47 17 0 19 7 19 60 l0 60 -30 0 c-27 0 -30 -3 -31 -32 -1 -18 -1 -41 0 -50 2 -15 -6 -18 -39 -18 l-41 0 3 -130 3 -130 -47 0 c-44 0 -47 2 -53 30 -5 21 -12 30 -23 29 -39 -3 -42 0 -42 61 0 57 -1 60 -25 60 l-25 0 0 135 0 135 -69 0 -70 0 -3 -47 c-2 -35 -7 -48 -18 -48 -35 -1 -40 -15 -40 -113 0 -117 6 -142 32 -142 11 0 18 -5 16 -12 -3 -8 -21 -13 -44 -13 -33 0 -40 4 -42 23 -3 19 -9 22 -53 22 l-49 0 0 35 c0 31 -3 35 -25 35 -24 0 -25 3 -25 60 0 54 -2 60 -21 60 -19 0 -20 5 -18 85 2 82 3 85 25 85 20 0 24 5 24 30 0 29 2 30 45 30 48 0 52 7 39 58 -10 34 -52 30 -56 -5 -2 -20 -9 -29 -25 -31 -18 -3 -23 -10 -23 -33 0 -24 -4 -29 -25 -29 l-25 0 0 -105 c0 -98 1 -105 20 -105 18 0 20 -7 20 -60 0 -57 1 -60 25 -60 22 0 25 -4 25 -35 l0 -35 50 0 c47 0 50 -2 50 -25 0 -24 2 -25 65 -25 l65 0 0 35 c0 28 -4 35 -20 35 -19 0 -20 7 -20 111 0 100 2 110 17 105 21 -9 33 10 33 55 0 41 11 49 66 49 l34 0 0 -140 0 -140 25 0 c24 0 25 -3 25 -59 l0 -60 33 -3 c20 -2 33 -9 33 -18 1 -8 2 -21 3 -27 1 -8 17 -13 46 -13 25 0 65 -5 90 -12 40 -11 45 -15 45 -40 0 -23 4 -27 23 -25 19 2 22 -3 25 -40 3 -40 5 -43 33 -43 19 0 29 -5 30 -15 1 -8 2 -21 3 -27 1 -8 13 -12 34 -10 l32 4 0 -62 c0 -61 0 -62 25 -56 23 6 25 3 25 -25 0 -27 3 -31 21 -26 21 6 21 5 17 -269 l-3 -274 23 0 c20 0 22 -4 22 -60 0 -52 2 -60 18 -58 16 3 17 -12 20 -184 l2 -188 -25 0 -25 0 0 -110 0 -110 50 0 50 0 0 -50 c0 -46 2 -50 23 -47 21 2 22 -2 25 -76 2 -42 -1 -77 -5 -76 -4 1 -36 1 -70 0 l-63 -1 0 -56 c0 -55 -1 -56 -25 -52 l-25 5 -2 -121 c-1 -66 -3 -130 -4 -141 -1 -11 -2 -28 -3 -37 -1 -12 -9 -18 -26 -18 l-25 0 0 -105 0 -105 -28 0 -28 0 0 -82 c0 -83 0 -83 -27 -86 -21 -3 -27 -9 -27 -28 0 -17 -5 -24 -20 -24 -18 0 -20 -7 -20 -54 0 -52 -1 -55 -27 -58 -22 -2 -28 -8 -28 -28 0 -21 -5 -26 -33 -28 -30 -3 -33 -6 -30 -30 3 -24 0 -27 -24 -25 -25 2 -28 -2 -28 -28 0 -16 0 -32 -1 -36 0 -4 4 -9 10 -11 5 -2 11 9 13 25 2 16 9 29 18 29 8 1 21 2 28 3 7 0 12 7 11 14 -3 28 2 36 28 39 22 2 28 8 28 28 0 20 6 26 28 28 26 3 27 6 27 57 0 48 2 54 23 57 12 2 23 10 23 18 1 8 2 20 3 27 0 6 10 9 21 6 18 -5 20 -14 20 -104 0 -99 0 -99 -25 -99 l-25 0 0 -285 c0 -183 4 -285 10 -285 6 0 10 98 10 275 l0 275 27 0 26 0 -7 195 -7 195 26 0 25 0 0 105 c0 87 3 105 15 105 8 0 15 -4 15 -9 0 -5 9 -11 20 -14 12 -3 20 -14 20 -26 0 -20 5 -21 90 -21 89 0 90 0 90 25 0 20 5 25 26 25 24 0 25 3 23 43 -3 40 -2 42 24 40 l27 -2 0 125 0 124 25 0 c21 0 25 5 25 30 0 28 2 30 40 30 36 0 40 2 40 25 0 14 7 28 15 31 8 4 15 17 15 29 0 17 7 25 23 27 20 3 22 8 19 47 -2 24 -1 59 3 77 5 28 11 34 30 34 l25 0 0 210 c0 199 -1 210 -19 210 -11 0 -21 9 -24 23 -6 20 -12 22 -67 22 -55 0 -61 -2 -67 -23 -10 -42 -28 -17 -28 39 0 51 1 54 25 54 24 0 25 3 25 60 0 53 3 60 20 60 30 0 34 18 34 158 l1 127 30 0 30 0 -2 218 -3 217 -27 0 c-31 -1 -30 -4 -28 113 1 71 1 72 -24 72 -25 0 -26 2 -26 70 l0 70 -30 0 -30 0 0 109 0 110 -47 -2 -48 -2 -3 48 c-3 40 -6 47 -23 47 -12 0 -23 8 -26 20 -3 13 -14 20 -29 20 -21 0 -24 5 -24 35 0 35 0 35 -45 35 l-45 0 0 40 c0 36 -2 40 -25 40 -21 0 -25 5 -25 30 0 27 -3 30 -30 30 -27 0 -30 3 -30 30 l0 30 -70 0 -70 0 0 30 c0 27 -2 29 -30 24 -30 -6 -30 -6 -30 40 l0 46 -95 0 c-94 0 -95 0 -95 24 0 22 -5 25 -52 30 -29 3 -66 4 -83 3 -28 -2 -30 0 -30 36 l0 37 -187 0 -188 0 0 41 0 41 -140 -4 -140 -3 0 32 c0 17 -3 34 -7 36 -11 7 -301 15 -348 11z m741 -481 c-11 -11 -19 6 -11 24 8 17 8 17 12 0 3 -10 2 -21 -1 -24z m654 -263 c0 -22 -4 -40 -10 -40 -5 0 -11 6 -11 13 -1 6 -3 24 -5 40 -2 18 2 27 12 27 10 0 14 -12 14 -40z m-2859 -1468 c43 -22 64 -42 101 -97 68 -100 88 -159 87 -253 -1 -42 -4 -88 -8 -102 -7 -23 -8 -23 -13 -5 -4 11 -10 35 -13 54 -19 91 -105 237 -163 276 -61 40 -93 46 -140 25 -48 -22 -80 -76 -89 -150 -11 -98 57 -261 188 -446 61 -86 89 -117 120 -132 50 -25 87 -16 123 31 22 27 26 29 42 17 24 -21 48 -82 73 -187 20 -86 20 -95 6 -129 -19 -47 -41 -63 -83 -64 -79 0 -128 53 -225 241 -41 81 -109 197 -151 258 -123 177 -161 287 -154 441 6 122 52 211 123 241 44 18 121 10 176 -19z m-58 -126 c41 -17 95 -79 136 -155 35 -67 36 -71 17 -71 -26 0 -74 -50 -92 -95 -47 -124 46 -319 152 -319 41 0 43 -8 8 -35 -35 -28 -66 -26 -102 4 -43 36 -163 206 -208 295 -37 72 -39 79 -40 178 0 56 -4 105 -7 109 -4 3 -7 -26 -7 -66 0 -46 -4 -70 -10 -66 -17 10 -11 107 9 151 20 45 63 84 93 84 10 0 33 -6 51 -14z"></path> <path d="M1459 6603 c-13 -16 -12 -17 4 -4 9 7 17 15 17 17 0 8 -8 3 -21 -13z"></path> <path d="M1583 6575 c0 -8 4 -12 9 -9 5 3 6 10 3 15 -9 13 -12 11 -12 -6z"></path> <path d="M2960 6245 c0 -2 6 -8 13 -14 10 -8 14 -7 14 2 0 8 -6 14 -14 14 -7 0 -13 -1 -13 -2z"></path> <path d="M4350 6219 c0 -5 5 -7 10 -4 6 3 10 8 10 11 0 2 -4 4 -10 4 -5 0 -10 -5 -10 -11z"></path> <path d="M2450 6190 c-9 -6 -10 -10 -3 -10 6 0 15 5 18 10 8 12 4 12 -15 0z"></path> <path d="M1295 5608 c-25 -61 -31 -155 -13 -198 14 -34 15 -33 14 55 0 72 4 100 21 138 16 35 18 47 9 47 -8 0 -22 -19 -31 -42z"></path> <path d="M3363 5582 c-15 -2 -23 -10 -23 -22 0 -17 -7 -19 -52 -17 -49 2 -53 0 -58 -24 l-5 -25 -170 1 c-147 1 -178 4 -226 22 -30 11 -78 24 -107 28 -44 6 -52 4 -52 -9 0 -12 11 -16 45 -16 200 0 298 -280 149 -428 l-44 -44 -49 44 c-109 98 -223 131 -456 131 -272 1 -390 -45 -501 -195 -47 -64 -89 -176 -79 -208 25 -78 151 -59 258 39 164 151 286 183 550 146 120 -16 165 -14 243 10 17 5 24 0 37 -27 9 -19 21 -54 26 -78 19 -80 12 -322 -14 -554 -14 -120 -25 -237 -25 -259 0 -46 19 -117 32 -117 10 0 10 6 -2 69 -8 42 -4 99 17 274 19 160 27 272 27 402 1 174 0 182 -26 245 -19 44 -24 66 -16 69 21 7 67 61 90 104 35 66 32 183 -6 260 -15 32 -34 61 -42 64 -8 3 -14 9 -14 14 0 4 23 1 52 -8 38 -11 74 -13 133 -9 44 4 106 7 138 8 52 1 57 3 57 24 0 21 5 23 58 26 43 2 57 7 57 18 0 11 15 16 58 20 31 3 58 9 60 14 2 9 -79 15 -120 8z m-774 -415 c69 -24 165 -80 191 -112 9 -10 3 -16 -26 -25 -39 -13 -129 -10 -289 10 -135 17 -259 -3 -351 -56 -23 -14 -74 -53 -115 -89 -90 -80 -125 -97 -187 -93 l-47 3 1 42 c2 99 108 244 216 297 93 46 164 56 358 52 157 -3 182 -6 249 -29z"></path> <path d="M1322 5258 c3 -74 25 -133 67 -188 21 -27 43 -20 23 8 -42 59 -65 121 -70 185 -6 92 -25 87 -20 -5z"></path> <path d="M3410 5215 c0 -24 -3 -25 -60 -25 -56 0 -60 -2 -60 -23 0 -19 -5 -22 -37 -22 l-38 0 -3 -67 c-3 -63 -4 -67 -25 -65 l-22 2 0 -325 0 -325 23 2 c24 3 23 8 26 -107 1 -59 3 -65 24 -68 20 -3 22 -9 22 -60 0 -62 -9 -85 -31 -80 -11 2 -15 -12 -17 -60 -3 -56 -5 -62 -21 -57 -13 4 -20 -1 -24 -15 -4 -15 -13 -20 -36 -20 -24 0 -31 -4 -31 -20 0 -18 -7 -20 -55 -20 -66 0 -109 17 -150 57 -39 39 -67 53 -103 53 -36 0 -56 -22 -47 -50 7 -21 6 -21 -20 -4 -14 9 -33 30 -41 45 -21 41 -18 154 5 204 21 44 65 95 83 95 9 0 9 3 0 12 -26 26 -81 -36 -157 -177 -43 -79 -111 -192 -205 -340 -97 -152 -134 -261 -115 -344 11 -50 22 -27 22 46 0 86 34 163 153 348 46 72 104 169 129 216 l46 86 0 -66 c0 -112 52 -163 167 -166 111 -3 149 -43 147 -155 -1 -110 0 -118 25 -144 26 -29 56 -34 56 -11 0 8 -8 15 -18 15 -31 0 -42 39 -40 130 2 70 -1 90 -16 113 l-19 28 29 -7 c31 -8 36 -9 102 -6 35 2 42 5 42 22 0 16 7 20 35 20 28 0 35 4 35 19 0 15 8 19 50 20 28 0 50 -4 50 -9 0 -15 33 -12 67 5 25 12 29 19 25 45 -5 34 -22 41 -22 9 0 -23 -25 -48 -48 -49 -9 0 -12 10 -10 33 3 30 1 32 -27 32 -32 0 -35 3 -35 35 0 14 6 20 18 18 15 -3 17 8 20 85 3 82 2 87 -18 87 -19 0 -20 6 -20 84 l0 85 -27 3 c-16 2 -27 6 -25 11 1 4 2 142 2 307 0 260 2 300 15 300 8 0 15 -4 15 -10 0 -6 37 -10 90 -10 73 0 90 3 90 15 0 12 13 15 55 15 48 0 55 2 55 20 0 19 7 20 164 20 155 0 164 -1 169 -20 4 -14 14 -20 35 -20 26 0 31 -4 37 -36 6 -35 7 -36 41 -30 31 6 34 5 34 -19 0 -21 5 -25 30 -25 25 0 30 -4 30 -25 l0 -25 115 0 116 0 -2 90 c-2 86 -3 90 -25 90 -22 0 -39 24 -28 41 3 5 -6 9 -20 9 -23 0 -26 4 -26 36 l0 36 -69 -7 c-67 -7 -69 -6 -73 17 -3 21 -9 23 -60 26 -50 3 -57 6 -60 25 -3 22 -4 22 -255 25 l-253 2 0 -25z m490 -25 c0 -16 9 -19 58 -22 49 -3 57 -6 57 -23 0 -18 8 -20 73 -23 71 -3 72 -3 72 -31 0 -22 4 -27 23 -27 18 1 23 -5 25 -30 3 -26 7 -31 23 -27 17 5 19 0 19 -66 l0 -71 -89 0 c-85 0 -90 1 -93 23 -2 16 -11 23 -30 25 -22 3 -28 9 -28 28 0 21 -4 24 -40 24 -38 0 -40 2 -40 30 0 28 -3 30 -35 30 -28 0 -35 4 -35 20 0 19 -7 20 -185 20 -178 0 -185 -1 -185 -20 0 -18 -7 -20 -55 -20 -42 0 -55 -3 -55 -15 0 -12 -14 -15 -70 -15 -65 0 -70 2 -76 23 -3 13 -4 41 -2 63 3 39 3 39 41 36 34 -3 37 -1 37 22 0 25 2 26 60 26 56 0 60 2 60 23 l0 22 235 -3 c224 -3 235 -4 235 -22z m-615 -1230 c8 -13 -20 -24 -41 -16 -20 8 -9 26 16 26 10 0 22 -5 25 -10z m-435 -39 l35 -29 -50 5 c-52 6 -82 23 -71 42 13 20 51 12 86 -18z"></path> <path d="M1865 5160 c-4 -6 -11 -7 -17 -4 -7 4 -8 2 -4 -5 6 -9 11 -9 22 0 14 11 18 19 10 19 -3 0 -8 -5 -11 -10z"></path> <path d="M3529 4960 c-1 -3 -2 -12 -3 -20 -1 -10 -15 -16 -43 -18 -38 -3 -43 -6 -43 -28 0 -17 -5 -24 -20 -24 -11 0 -20 -5 -20 -11 0 -6 -12 -9 -27 -7 -25 3 -27 0 -30 -44 l-4 -48 35 0 c31 0 36 -3 36 -23 0 -18 5 -23 23 -23 17 1 23 -5 25 -26 3 -22 9 -28 28 -28 19 0 24 -5 24 -25 0 -22 4 -25 35 -25 31 0 35 -3 35 -25 0 -23 3 -25 50 -25 47 0 50 -2 50 -25 0 -24 2 -25 76 -25 55 0 75 3 72 12 -3 9 -24 12 -66 10 -60 -2 -62 -2 -62 23 0 23 -3 25 -50 25 -47 0 -50 2 -50 25 0 22 -4 25 -35 25 -31 0 -35 3 -35 25 0 20 -5 25 -25 25 -25 0 -29 8 -26 43 2 12 -5 17 -22 17 -16 0 -26 7 -30 20 -3 14 -14 20 -31 20 -21 0 -26 5 -26 25 0 20 5 25 25 25 14 0 25 5 25 10 0 6 9 10 20 10 15 0 20 7 20 26 0 22 4 25 32 22 30 -3 32 -5 32 -48 1 -41 3 -45 24 -42 20 3 22 -1 22 -42 l0 -46 176 0 c167 0 176 1 181 20 4 16 14 20 44 20 38 0 39 1 39 35 0 24 -5 35 -15 35 -9 0 -15 9 -15 25 0 23 -2 24 -45 18 -44 -6 -45 -5 -45 21 0 23 -4 26 -34 26 -28 0 -35 4 -38 23 -3 22 -5 22 -145 22 -79 0 -144 -2 -144 -5z m114 -41 c-4 -16 0 -19 26 -19 28 0 36 8 32 33 0 4 22 7 49 7 l51 0 -3 -57 c-3 -51 -6 -58 -25 -61 -19 -3 -23 -10 -23 -43 l0 -39 -75 0 c-53 0 -75 4 -76 13 0 6 -2 26 -2 42 -2 25 -6 29 -24 27 -14 -2 -23 2 -24 10 -1 24 -2 83 0 98 1 12 12 14 50 12 42 -3 48 -6 44 -23z m227 -44 c0 -23 4 -25 45 -25 34 0 45 -4 45 -15 0 -9 7 -18 15 -21 30 -12 16 -34 -21 -34 -27 0 -37 -5 -41 -20 -5 -18 -14 -20 -74 -20 l-69 0 0 30 c0 25 4 30 25 30 23 0 25 3 25 50 0 47 2 50 25 50 20 0 25 -5 25 -25z"></path> <path d="M2263 4929 c-24 -4 -62 -16 -85 -27 -45 -20 -190 -126 -196 -142 -5 -15 20 -11 42 5 29 22 69 18 150 -12 61 -22 85 -26 168 -25 100 2 154 14 142 33 -4 8 -9 8 -17 0 -6 -6 -22 -11 -36 -10 -15 0 -20 3 -13 6 24 9 54 82 47 115 -7 28 -5 30 16 23 39 -11 169 -73 169 -81 0 -30 -175 -118 -267 -133 -70 -12 -183 -2 -224 19 -24 13 -29 13 -29 -4 0 -18 112 -46 182 -46 95 1 187 31 289 96 l41 26 -18 -32 c-72 -123 -231 -250 -331 -266 -27 -4 -43 -12 -43 -20 0 -17 26 -12 105 18 75 28 153 86 218 163 60 72 113 166 104 188 -7 19 -150 87 -216 103 -62 15 -134 16 -198 3z m175 -40 c13 -35 1 -78 -30 -109 -26 -27 -36 -30 -89 -30 -34 0 -73 7 -89 15 -32 16 -60 61 -60 94 0 29 74 49 178 50 75 1 83 -1 90 -20z m-265 -95 c16 -16 6 -24 -15 -13 -13 7 -38 15 -57 18 l-34 6 39 26 39 26 10 -28 c6 -15 13 -31 18 -35z"></path> <path d="M3513 4745 c0 -8 4 -12 9 -9 5 3 6 10 3 15 -9 13 -12 11 -12 -6z"></path> <path d="M3320 4275 c0 -18 5 -25 20 -25 16 0 20 -7 20 -35 0 -31 3 -35 25 -35 24 0 25 0 23 -90 -1 -50 -5 -93 -10 -96 -12 -8 0 -24 18 -24 11 0 14 22 14 115 l0 115 -25 0 c-22 0 -25 4 -25 35 0 28 -4 35 -20 35 -11 0 -20 7 -20 15 0 8 -4 15 -10 15 -5 0 -10 -11 -10 -25z"></path> <path d="M2669 4253 c-13 -16 -12 -17 4 -4 16 13 21 21 13 21 -2 0 -10 -8 -17 -17z"></path> <path d="M2406 3882 c-3 -5 1 -9 9 -9 8 0 12 4 9 9 -3 4 -7 8 -9 8 -2 0 -6 -4 -9 -8z"></path> <path d="M3128 3552 c-24 -2 -38 -8 -38 -17 0 -31 -60 -33 -125 -4 -61 27 -98 21 -211 -31 -47 -22 -109 -45 -137 -51 -81 -16 -103 -28 -123 -64 -26 -49 -11 -53 38 -13 65 53 73 55 228 62 116 6 155 4 194 -8 41 -13 78 -14 230 -6 255 13 246 14 246 -10 0 -18 7 -20 65 -20 62 0 65 -1 65 -24 0 -25 15 -43 23 -29 3 5 2 23 0 41 l-5 32 -63 0 c-58 0 -64 2 -67 23 -3 20 -9 22 -70 25 -65 3 -68 4 -68 27 0 23 -4 25 -49 25 -43 0 -50 3 -53 22 -3 23 -14 25 -80 20z m-156 -48 c15 -8 52 -14 83 -14 48 0 55 2 55 20 0 17 7 20 40 20 33 0 40 -3 40 -20 0 -17 7 -20 50 -20 46 0 50 -2 50 -24 0 -24 0 -24 -137 -28 -97 -3 -154 0 -193 10 -39 10 -86 13 -160 9 -101 -6 -104 -5 -70 10 135 60 181 67 242 37z m-422 -99 c-7 -8 -18 -15 -24 -15 -6 0 -2 7 8 15 25 19 32 19 16 0z"></path> <path d="M2780 3305 c0 -8 24 -22 55 -31 47 -15 63 -16 101 -6 24 7 65 12 90 12 37 0 47 -4 51 -20 5 -18 13 -19 101 -17 88 2 97 4 101 22 2 11 8 23 15 27 6 5 2 8 -11 8 -14 0 -23 -6 -23 -15 0 -12 -16 -15 -85 -15 -69 0 -85 3 -85 15 0 18 -97 21 -164 4 -35 -9 -50 -7 -94 9 -41 16 -52 17 -52 7z"></path> <path d="M3336 3293 c-6 -14 -5 -15 5 -6 7 7 10 15 7 18 -3 3 -9 -2 -12 -12z"></path> <path d="M1985 3219 c-4 -6 -5 -12 -2 -15 2 -3 7 2 10 11 7 17 1 20 -8 4z"></path> <path d="M2056 3091 c-4 -5 -2 -12 3 -15 5 -4 12 -2 15 3 4 5 2 12 -3 15 -5 4 -12 2 -15 -3z"></path> <path d="M3940 3055 c0 -22 -4 -25 -35 -25 l-35 0 0 -55 0 -54 -62 -3 -62 -3 -2 -35 c-1 -19 -2 -45 -3 -57 -1 -17 -7 -23 -23 -24 -22 0 -22 -1 -3 -9 38 -16 43 -11 50 50 l7 59 56 -1 57 -2 3 57 3 57 34 0 c28 0 35 4 35 19 0 11 3 26 6 35 4 11 1 16 -10 16 -10 0 -16 -9 -16 -25z"></path> <path d="M2200 2936 c0 -2 8 -10 18 -17 15 -13 16 -12 3 4 -13 16 -21 21 -21 13z"></path> <path d="M2093 2875 c0 -8 4 -12 9 -9 5 3 6 10 3 15 -9 13 -12 11 -12 -6z"></path> <path d="M2169 2838 c-5 -18 -6 -38 -1 -34 7 8 12 36 6 36 -2 0 -4 -1 -5 -2z"></path> <path d="M3640 2775 c0 -22 -4 -25 -36 -25 -33 0 -35 -2 -32 -27 3 -27 2 -28 -54 -31 -54 -3 -58 -5 -58 -27 0 -14 -5 -25 -12 -25 -9 0 -9 -3 -1 -11 18 -18 42 -4 36 20 -5 20 -1 21 56 21 53 0 62 3 60 18 -3 38 1 42 51 42 28 0 50 5 50 10 0 6 -9 10 -20 10 -25 0 -27 37 -2 43 10 3 6 5 -10 6 -23 1 -28 -3 -28 -24z"></path> <path d="M1260 1760 c-9 -6 -10 -10 -3 -10 6 0 15 5 18 10 8 12 4 12 -15 0z"></path> <path d="M1416 1412 c-3 -5 1 -9 9 -9 8 0 12 4 9 9 -3 4 -7 8 -9 8 -2 0 -6 -4 -9 -8z"></path> </g> </svg>