<svg xmlns="http://www.w3.org/2000/svg" width="1024" height="1024" viewBox="0 0 1024 1024">
  <defs>
    <linearGradient id="bg" x1="0" y1="0" x2="0" y2="1">
      <stop offset="0" stop-color="#e08a64"/>
      <stop offset="1" stop-color="#c9694a"/>
    </linearGradient>
  </defs>
  <g transform="translate(512 512) scale(1.2184) translate(-512 -512)">
    <path d="M924.00,512.00 L923.93,611.35 L923.73,643.07 L923.39,666.11 L922.92,684.84 L922.32,700.88 L921.58,715.05 L920.70,727.81 L919.68,739.47 L918.53,750.22 L917.24,760.22 L915.81,769.57 L914.24,778.35 L912.53,786.64 L910.68,794.49 L908.68,801.93 L906.54,809.00 L904.25,815.74 L901.81,822.16 L899.22,828.29 L896.47,834.15 L893.57,839.75 L890.51,845.11 L887.29,850.23 L883.90,855.13 L880.34,859.82 L876.61,864.31 L872.69,868.59 L868.59,872.69 L864.31,876.61 L859.82,880.34 L855.13,883.90 L850.23,887.29 L845.11,890.51 L839.75,893.57 L834.15,896.47 L828.29,899.22 L822.16,901.81 L815.74,904.25 L809.00,906.54 L801.93,908.68 L794.49,910.68 L786.64,912.53 L778.35,914.24 L769.57,915.81 L760.22,917.24 L750.22,918.53 L739.47,919.68 L727.81,920.70 L715.05,921.58 L700.88,922.32 L684.84,922.92 L666.11,923.39 L643.07,923.73 L611.35,923.93 L512.00,924.00 L412.65,923.93 L380.93,923.73 L357.89,923.39 L339.16,922.92 L323.12,922.32 L308.95,921.58 L296.19,920.70 L284.53,919.68 L273.78,918.53 L263.78,917.24 L254.43,915.81 L245.65,914.24 L237.36,912.53 L229.51,910.68 L222.07,908.68 L215.00,906.54 L208.26,904.25 L201.84,901.81 L195.71,899.22 L189.85,896.47 L184.25,893.57 L178.89,890.51 L173.77,887.29 L168.87,883.90 L164.18,880.34 L159.69,876.61 L155.41,872.69 L151.31,868.59 L147.39,864.31 L143.66,859.82 L140.10,855.13 L136.71,850.23 L133.49,845.11 L130.43,839.75 L127.53,834.15 L124.78,828.29 L122.19,822.16 L119.75,815.74 L117.46,809.00 L115.32,801.93 L113.32,794.49 L111.47,786.64 L109.76,778.35 L108.19,769.57 L106.76,760.22 L105.47,750.22 L104.32,739.47 L103.30,727.81 L102.42,715.05 L101.68,700.88 L101.08,684.84 L100.61,666.11 L100.27,643.07 L100.07,611.35 L100.00,512.00 L100.07,412.65 L100.27,380.93 L100.61,357.89 L101.08,339.16 L101.68,323.12 L102.42,308.95 L103.30,296.19 L104.32,284.53 L105.47,273.78 L106.76,263.78 L108.19,254.43 L109.76,245.65 L111.47,237.36 L113.32,229.51 L115.32,222.07 L117.46,215.00 L119.75,208.26 L122.19,201.84 L124.78,195.71 L127.53,189.85 L130.43,184.25 L133.49,178.89 L136.71,173.77 L140.10,168.87 L143.66,164.18 L147.39,159.69 L151.31,155.41 L155.41,151.31 L159.69,147.39 L164.18,143.66 L168.87,140.10 L173.77,136.71 L178.89,133.49 L184.25,130.43 L189.85,127.53 L195.71,124.78 L201.84,122.19 L208.26,119.75 L215.00,117.46 L222.07,115.32 L229.51,113.32 L237.36,111.47 L245.65,109.76 L254.43,108.19 L263.78,106.76 L273.78,105.47 L284.53,104.32 L296.19,103.30 L308.95,102.42 L323.12,101.68 L339.16,101.08 L357.89,100.61 L380.93,100.27 L412.65,100.07 L512.00,100.00 L611.35,100.07 L643.07,100.27 L666.11,100.61 L684.84,101.08 L700.88,101.68 L715.05,102.42 L727.81,103.30 L739.47,104.32 L750.22,105.47 L760.22,106.76 L769.57,108.19 L778.35,109.76 L786.64,111.47 L794.49,113.32 L801.93,115.32 L809.00,117.46 L815.74,119.75 L822.16,122.19 L828.29,124.78 L834.15,127.53 L839.75,130.43 L845.11,133.49 L850.23,136.71 L855.13,140.10 L859.82,143.66 L864.31,147.39 L868.59,151.31 L872.69,155.41 L876.61,159.69 L880.34,164.18 L883.90,168.87 L887.29,173.77 L890.51,178.89 L893.57,184.25 L896.47,189.85 L899.22,195.71 L901.81,201.84 L904.25,208.26 L906.54,215.00 L908.68,222.07 L910.68,229.51 L912.53,237.36 L914.24,245.65 L915.81,254.43 L917.24,263.78 L918.53,273.78 L919.68,284.53 L920.70,296.19 L921.58,308.95 L922.32,323.12 L922.92,339.16 L923.39,357.89 L923.73,380.93 L923.93,412.65 L924.00,512.00 Z" fill="url(#bg)"/>
    <path d="M449 -22Q361 12 289.5 58.5Q218 105 166.5 158.0Q115 211 87.0 264.5Q59 318 59 365Q59 426 103.5 495.0Q148 564 234.0 627.5Q320 691 445 732L485 655Q396 623 333.5 583.0Q271 543 232.0 502.0Q193 461 175.0 424.5Q157 388 157 362Q157 325 193.0 269.5Q229 214 302.0 156.0Q375 98 487 53Z" fill="#fff"
          transform="translate(309.24 775.66) scale(0.74271 -0.74271)"/>
  </g>
</svg>